<?xml version="1.0" encoding="UTF-8" standalone="no"?>
<svg
   xmlns:dc="http://purl.org/dc/elements/1.1/"
   xmlns:cc="http://creativecommons.org/ns#"
   xmlns:rdf="http://www.w3.org/1999/02/22-rdf-syntax-ns#"
   xmlns:svg="http://www.w3.org/2000/svg"
   xmlns="http://www.w3.org/2000/svg"
   viewBox="0 0 377.94666 117.24"
   height="117.24"
   width="377.94666"
   xml:space="preserve"
   id="svg2"
   version="1.1"><metadata
     id="metadata8"><rdf:RDF><cc:Work
         rdf:about=""><dc:format>image/svg+xml</dc:format><dc:type
           rdf:resource="http://purl.org/dc/dcmitype/StillImage" /></cc:Work></rdf:RDF></metadata><defs
     id="defs6" /><g
     transform="matrix(1.3333333,0,0,-1.3333333,0,117.24)"
     id="g10"><g
       transform="scale(0.1)"
       id="g12"><path
         id="path14"
         style="fill:#0d3258;fill-opacity:1;fill-rule:nonzero;stroke:none"
         d="m 1110.16,871.145 v -10.227 c -36.35,-0.605 -49.34,-15.234 -49.34,-49.887 V 664.684 c 0,-67.211 -42.8,-139.336 -160.449,-139.336 -103.516,0 -156.617,59.054 -156.617,136.582 v 158.289 c 0,34.715 -9.754,40.094 -46.621,40.699 v 10.227 h 139.316 v -10.227 h -4.894 c -29.782,0 -42.817,-8.203 -42.817,-39.617 V 670.609 c 0,-73.136 42.817,-117.058 123.582,-117.058 61.258,0 123.59,25.476 123.59,117.547 v 126.34 c 0,52.035 -8.15,61.234 -53.133,63.48 v 10.227 h 127.383" /><path
         id="path16"
         style="fill:#0d3258;fill-opacity:1;fill-rule:nonzero;stroke:none"
         d="m 1171.39,581.176 c 0,-29.797 7.05,-36.899 36.31,-36.899 v -10.273 h -108.94 v 10.273 c 23.83,0 36.31,13.043 36.31,34.18 v 113.809 c 0,20.062 -2.19,23.851 -16.26,26.55 l -18.45,3.817 v 8.66 l 62.36,22.785 h 8.67 v -42.242 c 36.31,22.73 66.65,42.773 93.23,42.773 36.86,0 57.98,-27.07 57.98,-81.257 0,-72.086 -3.78,-86.164 -4.31,-107.352 -0.58,-14.621 8.11,-21.723 30.34,-21.723 h 11.94 v -10.273 h -116.52 v 10.273 c 15.68,0.586 24.89,4.36 30.85,10.325 10.29,10.324 11.38,49.91 11.38,121.953 0,43.379 -21.11,56.953 -42.85,56.953 -17.31,0 -43.85,-15.195 -72.04,-34.695 V 581.176" /><path
         id="path18"
         style="fill:#0d3258;fill-opacity:1;fill-rule:nonzero;stroke:none"
         d="m 1435.19,879.297 c 13,0 23.8,-9.188 23.8,-20.625 0,-11.352 -10.8,-20.582 -23.8,-20.582 -13.05,0 -23.32,9.23 -23.32,20.582 0,11.437 10.27,20.625 23.32,20.625 z m 22.21,-304.082 c 0,-18.988 10.31,-30.938 39.02,-30.938 v -10.273 h -120.33 v 10.273 c 33.05,0 44.99,10.852 44.99,39.621 v 108.911 c 0,21.175 -2.7,23.843 -16.79,26.593 l -25.48,4.891 v 8.648 l 70.44,24.407 h 8.15 V 575.215" /><path
         id="path20"
         style="fill:#0d3258;fill-opacity:1;fill-rule:nonzero;stroke:none"
         d="m 1606.83,529.141 -78.6,179.918 c -8.14,18.984 -15.19,25.507 -23.86,27.148 l -16.79,2.68 v 9.769 h 110.57 v -9.769 c -33.08,-1.059 -43.37,-5.379 -30.36,-30.844 l 57.49,-135 55.24,125.199 c 9.78,22.27 4.88,37.965 -34.63,40.645 v 9.769 h 94.3 v -9.769 c -20.59,-3.778 -32.58,-15.68 -42.87,-39.551 l -74.75,-170.195 h -15.74" /><path
         id="path22"
         style="fill:#0d3258;fill-opacity:1;fill-rule:nonzero;stroke:none"
         d="m 1885.79,685.793 c -5.96,35.199 -27.62,58.547 -53.68,58.547 -17.88,0 -44.95,-8.133 -57.44,-58.547 z M 1773,671.711 c -1.02,-8.18 -2.09,-15.727 -2.09,-22.762 0,-56.371 39.53,-94.347 82.33,-94.347 27.14,0 48.26,10.839 68.89,35.265 l 5.94,-6.476 c -22.77,-28.789 -56.91,-55.895 -96.48,-55.895 -53.11,0 -94.29,48.246 -94.29,111.141 0,57.476 38.47,115.972 104.6,115.972 73.12,0 71.54,-52.546 89.42,-70.445 V 671.711 H 1773" /><path
         id="path24"
         style="fill:#0d3258;fill-opacity:1;fill-rule:nonzero;stroke:none"
         d="m 2029.97,573.59 c 0,-22.211 8.15,-29.313 35.24,-29.313 h 20.58 v -10.273 h -128.48 v 10.273 c 27.68,0.586 36.34,11.95 36.34,40.711 v 125.168 l -36.34,13.051 v 9.203 l 61.76,21.668 h 10.9 v -57.437 h 1.07 c 27.09,44.453 33.58,54.718 51.49,54.718 6.53,0 8.12,-0.546 18.42,-4.871 5.45,-2.148 15.21,-4.359 28.18,-8.093 l -12.97,-32.567 c -8.15,1.082 -18.47,3.817 -28.76,8.715 -5.93,2.715 -12.45,5.391 -18.98,5.391 -9.7,0 -15.68,-6.575 -21.13,-14.106 -7.03,-9.715 -12.96,-19.008 -17.32,-27.078 V 573.59" /><path
         id="path26"
         style="fill:#0d3258;fill-opacity:1;fill-rule:nonzero;stroke:none"
         d="m 2159.66,588.785 c 6.45,-32.558 27.06,-50.965 51.46,-50.965 21.68,0 38.48,16.25 38.48,35.77 0,11.398 -2.72,18.422 -17.36,33.09 -38.48,38.468 -81.28,42.269 -81.28,87.246 0,35.769 28.21,60.683 69.36,60.683 14.63,0 29.81,-3.25 43.37,-8.668 l 1.09,-49.3 h -9.22 c -3.81,27.652 -21.66,44.961 -43.36,44.961 -17.86,0 -33.03,-12.477 -33.03,-30.336 0,-47.735 100.78,-55.832 100.78,-121.934 0,-35.262 -29.29,-61.836 -67.22,-61.836 -10.3,0 -17.86,1.645 -23.83,3.793 -5.96,1.652 -10.34,3.246 -14.61,3.246 -3.26,0 -6.52,-2.133 -9.22,-6.469 h -8.16 l -5.95,60.719 h 8.7" /><path
         id="path28"
         style="fill:#0d3258;fill-opacity:1;fill-rule:nonzero;stroke:none"
         d="m 2365.21,879.297 c 13.01,0 23.82,-9.188 23.82,-20.625 0,-11.352 -10.81,-20.582 -23.82,-20.582 -13.03,0 -23.31,9.23 -23.31,20.582 0,11.437 10.28,20.625 23.31,20.625 z m 22.22,-304.082 c 0,-18.988 10.29,-30.938 39.02,-30.938 V 534.004 H 2306.1 v 10.273 c 33.11,0 45.02,10.852 45.02,39.621 v 108.911 c 0,21.175 -2.73,23.843 -16.79,26.593 l -25.52,4.891 v 8.648 l 70.48,24.407 h 8.14 V 575.215" /><path
         id="path30"
         style="fill:#0d3258;fill-opacity:1;fill-rule:nonzero;stroke:none"
         d="m 2568.35,748.656 -8.67,-23.851 h -58.34 V 598.527 c 0,-34.125 24.41,-45.562 35.78,-45.562 11.93,0 22.73,9.262 33.03,27.183 l 8.71,-8.16 c -13.01,-28.218 -34.18,-44.492 -59.12,-44.492 -31.94,0 -54.71,26.574 -54.71,62.875 v 134.434 h -24.94 v 8.703 c 21.15,10.262 39.59,35.199 52.02,68.836 h 9.23 v -53.688 h 67.01" /><path
         id="path32"
         style="fill:#0d3258;fill-opacity:1;fill-rule:nonzero;stroke:none"
         d="m 2770.69,688.512 c 16.27,41.183 5.94,49.316 -25.99,50.375 v 9.769 h 89.94 v -9.769 c -22.21,-2.68 -34.65,-17.895 -44.96,-43.364 l -92.19,-229.808 c -16.19,-40.102 -28.69,-58 -47.66,-58 -13.02,0 -22.2,8.152 -22.2,18.984 0,22.215 31.4,16.778 44.96,30.371 5.97,5.977 14.1,20.047 18.44,30.864 l 16.25,40.699 -83.99,178.277 c -10.33,22.215 -20.04,31.485 -42.83,31.977 v 9.769 h 108.96 v -9.769 c -33.06,-0.492 -36.87,-10.27 -26.01,-33.059 l 61.25,-132.238 46.03,114.922" /><path
         id="path34"
         style="fill:#0d3258;fill-opacity:1;fill-rule:nonzero;stroke:none"
         d="m 814.766,330.723 c -34.164,0 -64.496,-65.575 -64.496,-119.785 0,-45.489 19.496,-67.735 37.929,-67.735 43.356,0 68.836,70.449 68.836,120.313 0,37.988 -18.43,67.207 -42.269,67.207 z m 27.644,20.078 c 15.711,0 49.32,-21.66 49.32,-79.727 0,-102.969 -102.453,-147.949 -127.921,-147.949 -25.465,0 -48.227,40.637 -48.227,85.652 0,87.786 94.305,142.024 126.828,142.024" /><path
         id="path36"
         style="fill:#0d3258;fill-opacity:1;fill-rule:nonzero;stroke:none"
         d="m 911.063,326.387 1.632,10.293 c 13.035,1.64 26.035,3.816 39.594,7.09 8.117,44.421 24.375,91.015 54.731,121.367 18.95,18.968 42.83,29.273 63.94,29.273 21.17,0 38.48,-11.914 38.48,-25.992 0,-8.652 -6.52,-15.742 -15.19,-15.742 -17.85,0 -32.51,22.226 -48.22,22.226 -21.16,0 -38.46,-23.847 -46.057,-59.629 l -14.641,-70.996 h 46.598 l -5.41,-17.89 H 982.066 L 954.438,168.105 C 933.297,46.7188 871.488,3.37891 820.551,3.37891 c -22.738,0 -41.723,11.35549 -41.723,24.92189 0,8.6719 8.684,16.2695 17.91,16.2695 20.032,0 30.86,-23.8672 51.461,-23.8672 12.489,0 23.289,5.9766 33.094,15.7227 27.07,27.0898 37.363,119.7262 39.527,132.7542 l 27.653,157.207 h -37.41" /><path
         id="path38"
         style="fill:#0d3258;fill-opacity:1;fill-rule:nonzero;stroke:none"
         d="m 1428.6,155.137 c -53.64,-27.676 -122.46,-34.153 -145.23,-34.153 -118.69,0 -173.99,91.582 -173.99,170.735 0,81.289 56.94,183.183 189.18,183.183 57.97,0 96.45,-18.418 107.82,-18.418 4.9,0 9.25,1.055 12.5,3.782 h 7.58 v -87.817 h -10.83 c -14.68,67.754 -60.72,88.891 -111.12,88.891 -95.39,0 -144.19,-79.152 -144.19,-166.406 0,-111.086 78.06,-160.383 140.39,-160.383 24.95,0 52.56,5.41 82.94,20.586 v 68.293 c 0,30.847 -10.83,41.187 -43.35,41.187 h -20.09 v 9.719 h 146.34 v -9.719 c -27.09,-1.637 -37.95,-10.867 -37.95,-34.148 v -75.332" /><path
         id="path40"
         style="fill:#0d3258;fill-opacity:1;fill-rule:nonzero;stroke:none"
         d="m 1548.08,172.461 c 0,-22.207 10.31,-32.5 31.43,-32.5 h 9.24 v -10.32 h -121.93 v 10.32 c 34.65,0 44.95,10.293 44.95,36.316 v 261.75 c 0,15.235 -1.63,20.047 -16.79,21.739 l -24.36,2.714 v 9.161 l 69.34,22.238 h 8.12 V 172.461" /><path
         id="path42"
         style="fill:#0d3258;fill-opacity:1;fill-rule:nonzero;stroke:none"
         d="m 1722.76,230.469 c -10.3,-5.965 -18.96,-9.793 -31.97,-15.215 -33.08,-13.516 -45.53,-18.965 -45.53,-41.231 0,-19.472 15.69,-31.914 32,-31.914 8.65,0 15.17,2.696 45.5,23.836 z m -107.29,49.289 c -1.09,3.308 -1.65,4.89 -1.65,7.605 0,19.004 44.98,62.903 80.21,62.903 16.29,0 41.72,-7.61 56.88,-28.782 8.17,-11.386 8.17,-18.418 8.17,-46.582 v -72.617 c 0,-43.367 0,-53.133 14.11,-53.133 5.92,0 12.99,0.582 26.53,11.922 l 2.7,-8.144 c -29.23,-23.828 -44.44,-29.805 -53.64,-29.805 -22.23,0 -24.4,24.434 -24.92,33.027 -37.4,-30.832 -48.23,-33.027 -62.91,-33.027 -31.41,0 -50.37,17.91 -50.37,44.441 0,33.039 29.26,44.438 63.94,53.11 11.39,2.754 29.28,9.226 48.24,20.633 v 42.824 c 0,15.176 0,23.863 -9.23,34.676 -7.01,8.703 -18.38,15.703 -30.34,15.703 -17.88,0 -33.61,-15.176 -33.61,-26.516 0,-3.289 0.55,-5.437 2.71,-10.32 l -36.82,-17.918" /><path
         id="path44"
         style="fill:#0d3258;fill-opacity:1;fill-rule:nonzero;stroke:none"
         d="m 1829.12,184.395 c 6.55,-32.52 27.1,-50.997 51.55,-50.997 21.66,0 38.46,16.336 38.46,35.782 0,11.418 -2.69,18.457 -17.36,33.105 -38.44,38.43 -81.27,42.285 -81.27,87.246 0,35.782 28.16,60.735 69.37,60.735 14.61,0 29.81,-3.293 43.34,-8.684 l 1.08,-49.336 h -9.2 c -3.81,27.656 -21.68,45 -43.38,45 -17.87,0 -33.05,-12.469 -33.05,-30.351 0,-47.696 100.82,-55.829 100.82,-121.993 0,-35.168 -29.27,-61.777 -67.2,-61.777 -10.28,0 -17.9,1.621 -23.86,3.77 -5.93,1.679 -10.3,3.261 -14.62,3.261 -3.28,0 -6.49,-2.121 -9.2,-6.484 h -8.18 l -5.92,60.723 h 8.62" /><path
         id="path46"
         style="fill:#0d3258;fill-opacity:1;fill-rule:nonzero;stroke:none"
         d="m 2071.38,339.934 c -20.61,0 -52.58,-11.379 -52.58,-61.789 0,-31.954 16.28,-74.825 57.48,-74.825 31.42,0 52.01,26.035 52.01,63.45 0,46.589 -23.85,73.164 -56.91,73.164 z m 15.17,-321.3793 c 46.08,0 89.42,30.3516 89.42,64.4922 0,20.0271 -16.76,30.3511 -36.32,31.9411 -14.07,1.664 -82.35,2.231 -98.06,4.367 -15.19,-17.863 -35.25,-25.4683 -35.25,-46.562 0,-25.5469 35.76,-54.2383 80.21,-54.2383 z m 123.06,281.2503 c -8.14,0.527 -33.64,2.754 -54.21,6.562 3.24,-6.035 9.2,-17.344 9.2,-34.707 0,-40.117 -34.65,-78.633 -94.82,-78.633 -10.3,0 -15.18,1.106 -24.97,4.356 -8.65,-9.219 -33.02,-15.156 -33.02,-27.617 0,-13.614 23.29,-18.985 77.48,-19.512 61.27,-0.52 82.38,-3.281 98.67,-19.539 12.97,-13.039 16.23,-26.535 16.23,-37.9025 0,-35.2461 -47.71,-89.43359 -147.97,-89.43359 -56.35,0 -83.45,24.92189 -83.45,51.49609 0,31.4023 33.08,36.2773 57.98,66.59 -29.25,2.754 -51.48,21.152 -51.48,38.508 0,24.929 36.35,26.023 55.29,40.125 -33.06,13.007 -52.04,36.3 -52.04,67.218 0,46.637 41.73,82.95 95.37,82.95 24.95,0 46.1,-7.61 60.73,-21.711 24.36,0 47.15,2.754 71.01,5.429 v -34.179" /><path
         id="path48"
         style="fill:#0d3258;fill-opacity:1;fill-rule:nonzero;stroke:none"
         d="m 2345.26,136.152 c 31.98,0 68.25,32.539 68.25,86.719 0,61.777 -37.89,114.375 -83.42,114.375 -35.78,0 -68.87,-36.914 -68.87,-83.496 0,-65.586 37.46,-117.598 84.04,-117.598 z m -7.59,214.114 c 66.12,0 116.5,-49.309 116.5,-113.868 0,-63.937 -50.38,-113.273 -114.88,-113.273 -67.19,0 -118.68,48.789 -118.68,112.168 0,74.805 60.71,114.973 117.06,114.973" /><path
         id="path50"
         style="fill:#0d3258;fill-opacity:1;fill-rule:nonzero;stroke:none"
         d="m 2705.69,124.746 -64.51,152.852 -65.06,-152.852 h -15.11 l -80.82,182.149 c -7.56,16.796 -15.2,24.921 -40.1,27.617 v 9.765 h 105.15 v -9.765 c -31.99,-1.602 -34.16,-10.821 -22.75,-36.278 l 58.52,-130.668 53.12,125.762 c -11.93,27.61 -21.15,37.395 -40.14,39.582 l -12.98,1.602 v 9.765 h 112.16 v -9.765 c -26.54,-0.528 -34.63,-8.645 -23.28,-35.723 l 53.11,-129.023 52.05,126.797 c 11.91,28.75 2.71,37.949 -31.47,37.949 v 9.765 h 91.06 v -9.765 c -20.57,-2.11 -33.6,-12.442 -44.43,-38.992 l -69.89,-170.774 h -14.63" /><path
         id="path52"
         style="fill:#0d3258;fill-opacity:1;fill-rule:nonzero;stroke:none"
         d="M 0.078125,871.09 567.027,871.145 c 0,0 0.676,-268.645 -0.007,-463.711 C 567.125,263.77 389.609,105.313 283.395,99.8242 165.629,109.238 0.078125,273.965 0.078125,405.684 V 871.09" /><path
         id="path54"
         style="fill:#a3e1f9;fill-opacity:1;fill-rule:nonzero;stroke:none"
         d="M 279.359,675.66 V 176.23 h 18.024 v 499.43 h -18.024" /><path
         id="path56"
         style="fill:#fccc22;fill-opacity:1;fill-rule:nonzero;stroke:none"
         d="m 407.406,678.727 c 16.09,0.078 42.114,-0.079 58.989,-0.079 5.242,0 13.835,1.551 9.019,-10.003 -4.266,-10.239 -10.402,-24.508 -13.055,-30.649 -8.886,0 -45,-0.027 -45.078,0.152 -2.879,6.688 -7,16.207 -12.238,28.297 -2.785,6.457 -4.164,12.282 2.363,12.282 z m -8.16,-175.055 h 89.016 c 26.258,0 28.664,-3.598 30.508,-9.242 -1.098,8.75 -6.762,53.578 -10.711,86.023 -1.032,8.473 -4,31.754 -15.746,45.641 -3.715,4.465 -5.5,6.695 -13.481,10.113 0.621,1.762 7.883,19.828 13.262,34.406 2.773,7.45 -0.215,14.871 -5.903,18.34 -4.961,2.977 -11.324,3.113 -15.859,3.113 -30.508,0 -54.07,-0.05 -63.469,-0.05 -16.312,0 -23.875,-10.375 -18.898,-22.895 3.793,-9.48 10.07,-25.668 12.941,-33.066 -20.047,-6.692 -26.672,-34.067 -29.582,-57.77 -4.844,-39.98 -11.414,-93.289 -11.875,-96.488 -0.703,-5.078 -1.558,-9.277 6.789,-9.668 15.809,-1.016 34.285,-1.133 65.371,-0.32 3.008,-1.692 6.891,-2.746 11.977,-2.579 5.051,0.079 8.727,1.415 11.371,3.29 12.688,0.449 27.117,1.035 43.613,1.71 -14.488,0.34 -28.066,0.75 -40.632,1.102 4.527,5.625 4.066,13.316 3.648,14.824 -1.891,-20.847 -28.953,-18.847 -22.254,3.25 -2.906,0 -10.441,0 -15.234,-3.914 -1.285,-3.226 -0.844,-8.633 2.234,-13.086 -17.559,0.762 -32.031,1.407 -42.504,1.992 -5.375,0.274 -7.969,4.153 -5.25,7.735 11.344,14.801 12.008,17.539 20.668,17.539" /><path
         id="path58"
         style="fill:#ffffff;fill-opacity:1;fill-rule:nonzero;stroke:none"
         d="m 284.148,178.379 c 0,-5.867 -3.906,-10.645 -8.761,-10.645 -4.824,0 -8.778,4.778 -8.778,10.645 v 49.551 c 0,5.808 3.954,10.605 8.778,10.605 4.855,0 8.761,-4.797 8.761,-10.605 v -49.551" /><path
         id="path60"
         style="fill:#df9824;fill-opacity:1;fill-rule:nonzero;stroke:none"
         d="m 161.941,766.875 c 2.817,1.172 6.829,0.879 10.532,0.879 -4.098,3.402 -7.817,4.73 -10.055,5.32 -5.238,19.828 -33.934,14.449 -36.77,-3.129 -1.015,-6.347 -23.546,-9.132 -49.3824,-43.675 -11.9062,-15.86 -28.3515,-29.629 -33.3242,-32.797 -5.0117,-3.121 7.1914,-2.203 12.8359,3.777 5.2813,-5.34 15.6719,10.66 31.3086,13.359 4.1407,0.676 56.0981,10.11 42.4021,39.86 18.305,-23.551 -12.207,-40.485 -31.4333,-42.36 1.6914,-0.882 11.6873,-1.668 12.8283,-2.125 2.871,-1.007 -0.86,-4.492 1.484,-5.824 5.602,-3.09 16.703,-13.566 16.703,-13.566 0,0 6.328,2.152 3.465,5.004 -8.566,5.652 -10.894,7.371 -13.082,10.898 -0.144,0.207 -2.914,5.414 2.731,6.914 8.136,0.653 34.781,10.113 30.242,43.52 -0.723,5.277 2.988,10.996 9.515,13.945" /><path
         id="path62"
         style="fill:#0d3258;fill-opacity:1;fill-rule:nonzero;stroke:none"
         d="m 158.063,772.426 c 0,-1.758 -1.301,-3.129 -2.891,-3.129 -1.555,0 -2.863,1.371 -2.863,3.129 0,1.699 1.308,3.148 2.863,3.148 1.59,0 2.891,-1.449 2.891,-3.148" /><path
         id="path64"
         style="fill:#ffffff;fill-opacity:1;fill-rule:nonzero;stroke:none"
         d="m 292.289,240.391 v -70.157 h 9.609 v 70.157 h -9.609" /><path
         id="path66"
         style="fill:#fccc22;fill-opacity:1;fill-rule:nonzero;stroke:none"
         d="m 310.445,159.285 c 2.856,3 4.582,7.043 4.582,11.516 0,9.179 -7.453,16.679 -16.683,16.679 h -28.399 c -9.222,0 -16.718,-7.5 -16.718,-16.679 0,-4.336 1.66,-8.184 4.316,-11.153 -3.438,-3.105 -9.563,-9.023 -11.273,-11.035 19.074,-8.425 55.277,-7.734 75.687,0.117 -1.918,1.641 -8.441,7.637 -11.512,10.555" /><path
         id="path68"
         style="fill:#a3e1f9;fill-opacity:1;fill-rule:nonzero;stroke:none"
         d="m 283.723,735.211 c 0,-0.414 -0.051,-0.313 -0.051,0.117 -12.324,11.024 -51.918,15.727 -77.371,9.227 1.672,-3.086 3.719,-12.985 4.808,-16.926 37.579,12.508 72.563,-5.766 72.563,-5.766 0,0.086 0,0.246 0.016,0.36 0,-0.114 0,-0.313 0.035,-0.41 0,0 34.988,18.25 72.593,5.738 1.032,3.941 3.125,13.801 4.801,16.851 -25.492,6.571 -65.062,1.875 -77.394,-9.191" /><path
         id="path70"
         style="fill:#ffffff;fill-opacity:1;fill-rule:nonzero;stroke:none"
         d="M 295.098,675.688 V 288.723 h 5.601 v 386.965 h -5.601" /><path
         id="path72"
         style="fill:#ffffff;fill-opacity:1;fill-rule:nonzero;stroke:none"
         d="M 266.891,675.66 V 316.602 h 17.953 V 675.66 h -17.953" /><path
         id="path74"
         style="fill:#0d3258;fill-opacity:1;fill-rule:nonzero;stroke:none"
         d="m 301.988,537.523 c 1.157,4.2 1.711,14.59 0,17.852 -8.425,0 -21.5,-0.07 -29.133,0.121 17.461,-6.375 29.133,-17.973 29.133,-17.973" /><path
         id="path76"
         style="fill:#0d3258;fill-opacity:1;fill-rule:nonzero;stroke:none"
         d="m 239.059,217.844 c 10.035,-1.516 63.89,-4.055 63.89,-4.055 l 8.793,-22.844 c 0,0 -47.023,1.223 -72.683,26.899" /><path
         id="path78"
         style="fill:#a3e1f9;fill-opacity:1;fill-rule:nonzero;stroke:none"
         d="m 459.469,381.621 c -16.836,10.879 -37.274,2.512 -59.395,21.074 0.071,-57.629 42.051,-69.187 18.434,-84.558 -21.059,-13.774 -41.442,-17.18 -62.61,-15.422 1.793,2.883 4.969,8.125 7.493,10.723 -25.942,3.339 -48.567,1.464 -58.055,0.351 -32.305,9.492 -68.133,21.465 -111.293,22.129 7.836,-6.387 15.543,-17.461 15.543,-36.563 -6.543,25.782 -33.359,39.258 -46.523,44.395 -3.93,1.484 -7.629,2.18 -11.461,2.813 -1.938,-2.637 -6.094,-7.071 -13.082,-9.676 -3.989,2.105 -7.25,-1.66 -6.707,-2.903 0.234,-0.617 0.156,-1.218 -0.333,-1.836 -3.843,-5 -16.496,-2.617 -25.906,0.645 -10.8513,3.738 -10.4138,-3.73 -8.3123,-7.473 3.4063,-6.023 6.6993,-9.929 8.3083,-13.269 14.41,-29.434 25.078,-48.758 57.032,-67.031 30.363,-22.403 68.531,-33.946 107.343,-35.274 14.164,-5.078 46.7,-14.043 87.496,-7.519 -7.925,5.332 -15.859,10.605 -18.48,15.91 51.844,14.968 96.66,49.031 115.004,100.437 0.207,0.567 0.406,1.133 0.601,1.699 3.282,11.258 -7.625,26.211 -23.113,11.465 13.418,32.239 35.621,18.282 30.918,-0.781 17.723,23.848 41.414,49.484 73.051,59.199 -28.914,13.34 -57.285,1.778 -75.953,-8.535" /><path
         id="path80"
         style="fill:#0d3258;fill-opacity:1;fill-rule:nonzero;stroke:none"
         d="m 302.535,431.895 c 1.195,4.238 1.695,14.648 0,17.851 -8.43,0 -21.484,-0.117 -29.082,0.117 17.402,-6.367 29.082,-17.968 29.082,-17.968" /><path
         id="path82"
         style="fill:#fccc22;fill-opacity:1;fill-rule:nonzero;stroke:none"
         d="m 314.773,465.84 c 0,-9.258 -7.585,-16.738 -16.921,-16.738 h -28.786 c -9.336,0 -16.933,7.48 -16.933,16.738 0,9.238 7.597,16.672 16.933,16.672 h 28.786 c 9.336,0 16.921,-7.434 16.921,-16.672" /><path
         id="path84"
         style="fill:#df9824;fill-opacity:1;fill-rule:nonzero;stroke:none"
         d="m 297.363,454.785 c -16.879,-0.176 -31.386,0 -31.386,0 0,0 23.773,1.426 38.859,17.52 3.957,-2.625 4.699,-17.469 -7.473,-17.52" /><path
         id="path86"
         style="fill:#0d3258;fill-opacity:1;fill-rule:nonzero;stroke:none"
         d="m 302.813,324.805 c 1.179,4.179 1.667,14.636 0,17.832 -8.426,0 -21.461,-0.098 -29.098,0.136 17.433,-6.375 29.098,-17.968 29.098,-17.968" /><path
         id="path88"
         style="fill:#fccc22;fill-opacity:1;fill-rule:nonzero;stroke:none"
         d="m 315.012,359.238 c 0,-9.265 -7.574,-16.738 -16.914,-16.738 H 269.32 c -9.363,0 -16.914,7.473 -16.914,16.738 0,9.239 7.551,16.621 16.914,16.621 h 28.778 c 9.34,0 16.914,-7.382 16.914,-16.621" /><path
         id="path90"
         style="fill:#df9824;fill-opacity:1;fill-rule:nonzero;stroke:none"
         d="m 297.582,348.184 c -16.898,-0.157 -31.359,0.031 -31.359,0.031 0,0 23.726,1.316 38.836,17.519 3.949,-2.687 4.726,-17.472 -7.477,-17.55" /><path
         id="path92"
         style="fill:#fccc22;fill-opacity:1;fill-rule:nonzero;stroke:none"
         d="m 258.215,648.539 v -49.945 h 50.879 v 49.945 h -50.879" /><path
         id="path94"
         style="fill:#df9824;fill-opacity:1;fill-rule:nonzero;stroke:none"
         d="m 309.094,598.656 c -8.629,-2.086 -8.082,-9.316 -8.395,-11.984 0,0 -20.519,-0.133 -33.988,0 0.105,0.777 0.418,10.672 -8.496,11.984 0,0 47.609,-0.043 50.879,0" /><path
         id="path96"
         style="fill:#df9824;fill-opacity:1;fill-rule:nonzero;stroke:none"
         d="m 287.926,648.539 v -50.57 h 13.785 v 50.57 h -13.785" /><path
         id="path98"
         style="fill:#fccc22;fill-opacity:1;fill-rule:nonzero;stroke:none"
         d="m 122.48,337.969 c -2.546,0.957 -3.929,3.125 -4.625,4.765 -1.648,3.633 -1.589,8.516 0.18,13.125 1.774,4.532 4.988,8.223 8.719,9.875 1.613,0.692 4.098,1.317 6.629,0.36 3.75,-1.504 5.875,-5.684 5.875,-10.692 0,-2.328 -0.449,-4.789 -1.375,-7.187 -1.746,-4.57 -5.024,-8.254 -8.699,-9.914 -1.629,-0.684 -4.09,-1.367 -6.704,-0.332 z m 1.567,33.816 c -5.359,-2.351 -9.832,-7.273 -12.215,-13.523 -2.453,-6.278 -2.453,-12.891 -0.109,-18.289 1.73,-3.887 4.703,-6.848 8.371,-8.274 3.64,-1.386 7.84,-1.191 11.758,0.559 5.367,2.312 9.828,7.273 12.257,13.476 4.348,11.239 0.575,23.094 -8.293,26.563 -3.668,1.441 -7.847,1.258 -11.769,-0.512" /><path
         id="path100"
         style="fill:#a3e1f9;fill-opacity:1;fill-rule:nonzero;stroke:none"
         d="m 131.586,339.746 c -2.879,0.918 -9.945,2.988 -18.457,3.262 -6.024,0.195 -11.906,3.672 -11.551,5.449 0.336,1.277 1.899,1.945 4.434,2.297 5.82,0.828 18.445,0.144 32.078,-2.063 -1.141,-3.281 -2.988,-6.328 -6.504,-8.945" /><path
         id="path102"
         style="fill:#ef2f2a;fill-opacity:1;fill-rule:nonzero;stroke:none"
         d="m 153.063,745.336 c -0.211,-25.387 -19.645,-33.383 -25.247,-34.844 1.864,5.629 9.778,31.953 25.247,34.844" /><path
         id="path104"
         style="fill:#fccc22;fill-opacity:1;fill-rule:nonzero;stroke:none"
         d="m 315.188,571.91 c 0,-9.269 -7.547,-16.801 -16.942,-16.801 h -28.738 c -9.379,0 -16.942,7.532 -16.942,16.801 0,9.188 7.563,16.66 16.942,16.66 h 28.738 c 9.395,0 16.942,-7.472 16.942,-16.66" /><path
         id="path106"
         style="fill:#df9824;fill-opacity:1;fill-rule:nonzero;stroke:none"
         d="m 297.809,560.84 c -16.907,-0.18 -31.422,0.019 -31.422,0.019 0,0 23.773,1.426 38.871,17.539 3.961,-2.699 4.715,-17.484 -7.449,-17.558" /><path
         id="path108"
         style="fill:#ffffff;fill-opacity:1;fill-rule:nonzero;stroke:none"
         d="m 185.066,329.668 c 18.336,-12.266 24.52,-30.313 24.52,-30.313 0,0 6.098,15.098 -2.246,26.817 16.683,4.863 45.656,-2.734 71.805,-12.969 38.371,-15.027 67.07,-20.019 96.304,-15.027 29.203,4.969 44.59,11.043 54,25.613 4.989,7.793 19.762,6.152 15.59,-5.535 -4.164,-11.711 -22.285,-45.102 -56.508,-54.316 -34.238,-9.161 -90.734,-24.504 -174.258,-3.594 -22.347,5.594 -74.843,19.539 -96.293,47.097 -4.304,5.528 -5.425,15.813 -5.632,17.43 -0.246,2.004 1.07,3.031 5.761,2.207 14.711,-2.594 17.516,3.039 22.981,9.231 6.023,0.793 27.269,4.472 43.976,-6.641" /><path
         id="path110"
         style="fill:#409adb;fill-opacity:1;fill-rule:nonzero;stroke:none"
         d="m 438.906,320.613 c -25.531,-48.543 -74.89,-56.07 -126.558,-57.644 -20.946,-0.586 -41.895,2.019 -59.907,6.64 15.18,-1.55 30.895,-0.324 40.485,3.008 -3.742,19.473 -36.969,33.606 -60.137,34.863 -4.398,5 -5.66,11.504 -16.312,15.274 7.527,-6.887 6.902,-16.531 10.652,-21.524 18.961,-3.847 42.09,-8.703 53.254,-23.593 -3.938,-5.059 -38.238,-2.246 -56.945,2.011 -8.067,2.969 -16.469,7.832 -20.942,16.551 -8.926,-9.988 -23.105,-6.394 -37.695,0.871 -0.211,5.664 -3.696,10.645 -11.231,12.102 1.633,-2.473 2.059,-5.051 2.071,-7.141 -16.477,9.492 -32.172,21.094 -40.067,20.489 -11.183,-0.848 24.41,-63.301 54.481,-69.961 89.3,-51.485 238.535,-28.868 273.898,58.039 4.977,12.527 0.594,20.672 -5.047,10.015" /><path
         id="path112"
         style="fill:#ffffff;fill-opacity:1;fill-rule:nonzero;stroke:none"
         d="m 156.852,302.871 c 0.496,-5.43 -3.77,-10.344 -9.586,-10.887 -5.762,-0.675 -10.899,3.348 -11.45,8.817 -0.527,5.488 3.723,10.39 9.504,10.957 5.801,0.558 10.942,-3.406 11.532,-8.887" /><path
         id="path114"
         style="fill:#0d3258;fill-opacity:1;fill-rule:nonzero;stroke:none"
         d="m 151.801,301.836 c 0,-2.684 -2.481,-4.824 -5.516,-4.824 -2.988,0 -5.465,2.14 -5.465,4.824 0,2.676 2.477,4.875 5.465,4.875 3.035,0 5.516,-2.199 5.516,-4.875" /><path
         id="path116"
         style="fill:#ffffff;fill-opacity:1;fill-rule:nonzero;stroke:none"
         d="m 407.738,390.859 c -6.136,-21.132 20.035,-49.66 20.035,-49.66 0,0 -11.843,36.985 -20.035,49.66" /><path
         id="path118"
         style="fill:#ffffff;fill-opacity:1;fill-rule:nonzero;stroke:none"
         d="m 426.105,386.309 c -9.003,-12.364 7.934,-40.547 7.934,-40.547 0,0 -0.934,22.539 -7.934,40.547" /><path
         id="path120"
         style="fill:#ffffff;fill-opacity:1;fill-rule:nonzero;stroke:none"
         d="m 454.469,354.152 c 7.117,15.45 21.328,30.875 36.375,36.336 -31.352,-3.789 -38.438,-24.629 -36.375,-36.336" /><path
         id="path122"
         style="fill:#ffffff;fill-opacity:1;fill-rule:nonzero;stroke:none"
         d="m 283.648,822.785 c -13.218,25.625 -32.132,5.887 -65.265,16.141 -5.848,-27.11 -11.699,-75.61 -13.356,-83.942 22.629,-6.804 42.536,14.352 69.575,-3.269 -2.899,34.969 8.363,64.09 8.363,64.09 0,0 0.355,4.277 0.683,6.98" /><path
         id="path124"
         style="fill:#a3e1f9;fill-opacity:1;fill-rule:nonzero;stroke:none"
         d="m 283.73,822.883 c -2.613,4.539 -5.14,8.39 -9.519,10.879 -3.895,-41.617 -4.871,-50.653 -18.082,-75.078 8.219,-1.063 14.269,-4.094 18.5,-7.079 -2.945,35.036 9.078,62.536 9.078,62.536 0,0 -0.059,7.261 0.023,8.742" /><path
         id="path126"
         style="fill:#ffffff;fill-opacity:1;fill-rule:nonzero;stroke:none"
         d="m 349.004,839.043 c -33.125,-10.25 -52.074,9.477 -65.274,-16.16 -0.023,-8.742 -0.058,-73.34 0.059,-78.164 31.762,29.66 53.547,2.871 78.57,10.398 -1.668,8.336 -7.523,56.801 -13.355,83.926" /><path
         id="path128"
         style="fill:#fccc22;fill-opacity:1;fill-rule:nonzero;stroke:none"
         d="m 274.508,697.07 v -21.41 h 18.418 v 21.41 h -18.418" /><path
         id="path130"
         style="fill:#fccc22;fill-opacity:1;fill-rule:nonzero;stroke:none"
         d="M 283.832,717.59 293.004,701.578 274.43,701.5 Z" /><path
         id="path132"
         style="fill:#199445;fill-opacity:1;fill-rule:nonzero;stroke:none"
         d="m 128.844,654.355 v 0.122 c -0.149,0.058 -0.137,-0.024 0,-0.122" /><path
         id="path134"
         style="fill:#73c82c;fill-opacity:1;fill-rule:nonzero;stroke:none"
         d="m 202.969,549.453 c 0,0 25.269,12.477 27.773,25.309 -7.82,7.508 -27.582,8.336 -27.582,8.336 0,0 22.692,17.269 21.738,29.797 -11.328,5.285 -31.496,2.214 -31.496,2.214 9.356,12.942 12.028,23.235 11.657,32.286 -11.789,1.96 -29.993,-5.028 -29.993,-5.028 0,0 6.11,21.75 0.098,33.024 -10.906,2.922 -26.281,-16.297 -26.281,-16.297 0,0 -5.461,23.765 -18.235,36.418 -12.793,-12.653 -18.414,-36.418 -18.414,-36.418 0,0 -15.3551,19.219 -26.316,16.297 -5.9219,-11.274 0.1562,-33.024 0.1562,-33.024 0,0 -18.2031,6.988 -30.0469,5.028 -0.3125,-9.051 2.3672,-19.344 11.7149,-32.286 0,0 -20.207,3.071 -31.4883,-2.214 -0.9531,-12.528 21.7188,-29.797 21.7188,-29.797 0,0 -19.7774,-0.828 -27.5664,-8.336 2.5117,-12.832 27.789,-25.309 27.789,-25.309 0,0 -15.0547,-3.09 -24.2265,-13.496 5.8398,-7.777 19.0195,-15.215 29.3164,-16.914 -8.9063,-7.18 -13.8789,-12.773 -16.1368,-16.973 14.461,-11.683 44.8047,-13.34 75.1366,-3.894 0,-5.809 0.094,-52.629 -7.012,-74.074 h 30.567 c -7.063,21.445 -6.988,68.265 -6.988,74.074 30.336,-9.446 60.711,-7.789 75.128,3.894 -2.265,4.2 -7.207,9.793 -16.085,16.973 10.285,1.699 23.421,9.137 29.289,16.914 -9.219,10.406 -24.215,13.496 -24.215,13.496" /><path
         id="path136"
         style="fill:#199948;fill-opacity:1;fill-rule:nonzero;stroke:none"
         d="m 175.336,548.617 c 2.863,1.574 17.531,6.055 25.035,19.141 -7.504,7.277 -25.035,7.551 -25.035,7.551 0,0 15.605,10.265 20.871,25.636 -13.375,3.899 -27.277,0 -27.277,0 0,0 11.406,16.16 12.812,29.789 -12.812,-1.41 -26.433,-8.14 -26.433,-8.14 3.867,8.414 5.808,20.328 4.148,30.672 -6.394,-1.254 -12.23,-8.559 -15.723,-13.114 -3.254,10.375 -8.769,13.641 -12.535,15.727 -6.25,-9.168 -7.5,-15.106 -6.722,-27.66 2.109,2.086 5.449,5.39 10.894,8.519 3.32,-17.922 -3.062,-30.961 -3.062,-30.961 0,0 7.894,5.145 18.343,6.379 0.434,-9.879 -3.187,-20.125 -13.621,-32.234 0,0 9.176,5.539 19.785,6.383 -1.699,-13.934 -10.199,-23.239 -18.972,-31.196 5.851,2.75 15.886,2.5 22.84,0.266 -3.598,-10.574 -11.86,-15.891 -23.911,-22.523 7.469,0 15.137,-0.997 19.442,-3.891 -4.848,-9.078 -16.676,-13.379 -24.867,-15.723 18.941,-7.222 37.281,-10.242 55.254,-5.879 -1.25,5.36 -8.067,11.86 -16.016,16.43 7.269,1.656 18.09,3.914 27.574,12.004 -6.125,6.133 -13.656,10.281 -22.824,12.824" /><path
         id="path138"
         style="fill:#a3e1f9;fill-opacity:1;fill-rule:nonzero;stroke:none"
         d="m 73.8203,138.145 c 4.2852,-14.336 -7.168,-42.0591 0.9727,-58.0669 -6.9453,0.2344 -51.1367,-7.8515 -57.6641,-2.1289 -6.4414,5.711 -23.63671,17.9102 -6.4414,27.2658 17.2227,9.297 60.7422,26.035 63.1328,32.93" /><path
         id="path140"
         style="fill:#a3e1f9;fill-opacity:1;fill-rule:nonzero;stroke:none"
         d="m 495.621,139.609 c 5.047,-45.8981 -2.648,-51.0543 -2.18,-64.2379 4.329,-1.1328 39.465,-8.4297 51.872,-1.7773 12.417,6.7187 21.027,22.9609 15.277,29.6482 -5.723,6.719 -34.367,24.871 -45.832,26.77 -11.465,1.972 -16.02,6.199 -19.137,9.597" /><path
         id="path142"
         style="fill:#0d3258;fill-opacity:1;fill-rule:nonzero;stroke:none"
         d="m 550.48,117.449 c -19.085,10.246 -47.433,16.438 -63.46,38.332 -6.008,-22.043 8.566,-34.707 7.98,-67.1482 13.496,25.1952 2.383,31.3872 4.664,43.3202 10.879,-13.848 27.172,-15.848 38.551,-21.758 14.519,-7.597 23.418,-24.3669 -6.633,-24.2575 -58.684,0.1172 -435.3164,-0.0781 -495.289,-0.0781 -31.01175,0 -21.9375,16.6406 -7.4102,24.2306 11.3945,5.918 27.8906,7.918 38.7188,22.156 2.2617,-11.933 -8.9727,-18.047 4.5703,-43.2538 -0.5938,32.4528 13.8437,44.5628 8.1133,66.7888 C 64.2813,133.887 35.4883,127.695 16.3555,117.449 0.117188,108.816 0.078125,103.047 0.078125,75.2148 0.078125,56.5625 0.15625,33.0078 0,17.2344 -0.113281,6.15234 12.7813,-0.410156 28.1836,0.0195313 c 70.5508,0 439.9144,0 510.4884,0 15.355,-0.4296873 28.453,5.9765587 28.453,17.0507687 0.102,15.8203 -0.156,39.6485 0,58.3008 0.234,28.6059 -0.414,33.4449 -16.645,42.0779" /><path
         id="path144"
         style="fill:#ffffff;fill-opacity:1;fill-rule:nonzero;stroke:none"
         d="M 28.4414,61.8164 H 39.375 l 7.5898,-21.1523 c 0.1602,-0.4375 0.5743,-2.1485 1.2305,-5.0664 0.7266,2.9179 1.168,4.6289 1.3633,5.0664 l 7.4375,21.1523 H 67.9766 L 52.1484,24.0039 h -7.832 l -15.875,37.8125" /><path
         id="path146"
         style="fill:#ffffff;fill-opacity:1;fill-rule:nonzero;stroke:none"
         d="M 73.9336,61.8164 V 24.0039 h 10.457 v 37.8125 h -10.457" /><path
         id="path148"
         style="fill:#ffffff;fill-opacity:1;fill-rule:nonzero;stroke:none"
         d="m 115.547,38.0742 -3.844,12.4922 c -0.176,0.6328 -0.629,2.3047 -1.293,5.0977 -0.687,-2.793 -1.156,-4.4649 -1.324,-5.0977 L 105.277,38.0742 Z M 103.91,61.8164 h 12.906 l 13.047,-37.8125 h -10.261 l -1.872,6.7969 h -14.644 l -1.988,-6.7969 H 90.8789 L 103.91,61.8164" /><path
         id="path150"
         style="fill:#ffffff;fill-opacity:1;fill-rule:nonzero;stroke:none"
         d="m 150.258,61.8164 h 10.957 l 7.555,-21.1523 c 0.179,-0.4375 0.554,-2.1485 1.273,-5.0664 0.656,2.9179 1.145,4.6289 1.301,5.0664 l 7.511,21.1523 h 10.93 L 173.949,24.0039 h -7.82 l -15.871,37.8125" /><path
         id="path152"
         style="fill:#ffffff;fill-opacity:1;fill-rule:nonzero;stroke:none"
         d="m 195.496,61.8164 h 23.172 v -8.3086 h -13.137 v -6.582 h 12.379 v -8.0586 h -12.379 v -6.4063 h 13.137 v -8.457 h -23.172 v 37.8125" /><path
         id="path154"
         style="fill:#ffffff;fill-opacity:1;fill-rule:nonzero;stroke:none"
         d="m 239.695,43.9375 c 4.293,0 6.379,1.3555 6.379,4.7148 0,3.9258 -1.953,5.1954 -6.23,5.1954 H 237.77 V 43.9375 Z M 228.09,61.8164 h 10.793 c 0.219,0 0.414,0 0.625,0 5.222,0 9.258,-0.0586 12.512,-2.5391 2.707,-2.121 4.175,-5.332 4.175,-9.2968 0,-5.8203 -2.933,-9.5508 -8.418,-10.7696 l 10.293,-15.207 h -11.64 l -8.66,14.8125 V 24.0039 h -9.68 v 37.8125" /><path
         id="path156"
         style="fill:#ffffff;fill-opacity:1;fill-rule:nonzero;stroke:none"
         d="M 264.879,61.8164 V 24.0039 h 10.418 v 37.8125 h -10.418" /><path
         id="path158"
         style="fill:#ffffff;fill-opacity:1;fill-rule:nonzero;stroke:none"
         d="m 291.684,52.8711 h -8.414 v 8.9453 h 27.168 V 52.8711 H 301.98 V 24.0039 h -10.296 v 28.8672" /><path
         id="path160"
         style="fill:#ffffff;fill-opacity:1;fill-rule:nonzero;stroke:none"
         d="m 338.336,38.0742 -3.863,12.4922 c -0.16,0.6328 -0.578,2.3047 -1.266,5.0977 -0.664,-2.793 -1.156,-4.4649 -1.348,-5.0977 L 328.07,38.0742 Z m -11.617,23.7422 h 12.855 l 13.063,-37.8125 h -10.219 l -1.934,6.7969 h -14.617 l -1.949,-6.7969 h -10.281 l 13.082,37.8125" /><path
         id="path162"
         style="fill:#ffffff;fill-opacity:1;fill-rule:nonzero;stroke:none"
         d="m 369.574,31.0547 c 2.832,0 4.711,1.6601 4.711,3.8867 0,3.0274 -2.066,3.9258 -6.359,5.0586 -6.789,1.75 -10.117,4.4922 -10.117,10.4023 0,7.0391 5.117,12.2735 13.05,12.2735 4.223,0 7.914,-1.082 11.157,-3.3594 l -3.211,-7.3828 c -2.36,2.0117 -4.887,3.0078 -7.223,3.0078 -2.539,0 -4.211,-1.3867 -4.211,-3.1641 0,-2.7148 2.641,-3.3007 6.043,-4.2109 6.691,-1.7851 10.43,-4.2461 10.43,-11.2578 0,-7.8125 -5.617,-13.3203 -14.481,-13.3203 -5.332,0 -9.383,1.7187 -13.422,5.5664 l 4.645,7.6562 c 3.027,-3.4453 5.996,-5.1562 8.988,-5.1562" /><path
         id="path164"
         style="fill:#ffffff;fill-opacity:1;fill-rule:nonzero;stroke:none"
         d="m 406.387,61.8164 h 10.949 l 7.566,-21.1523 c 0.149,-0.4375 0.582,-2.1485 1.235,-5.0664 0.711,2.9179 1.172,4.6289 1.324,5.0664 l 7.504,21.1523 h 10.969 l -15.86,-37.8125 h -7.812 l -15.875,37.8125" /><path
         id="path166"
         style="fill:#ffffff;fill-opacity:1;fill-rule:nonzero;stroke:none"
         d="M 451.895,61.8164 V 24.0039 h 10.414 v 37.8125 h -10.414" /><path
         id="path168"
         style="fill:#ffffff;fill-opacity:1;fill-rule:nonzero;stroke:none"
         d="m 478.691,52.8711 h -8.394 v 8.9453 h 27.16 v -8.9453 h -8.488 V 24.0039 h -10.278 v 28.8672" /><path
         id="path170"
         style="fill:#ffffff;fill-opacity:1;fill-rule:nonzero;stroke:none"
         d="m 525.336,38.0742 -3.871,12.4922 c -0.141,0.6328 -0.543,2.3047 -1.227,5.0977 -0.73,-2.793 -1.172,-4.4649 -1.336,-5.0977 l -3.789,-12.4922 z m -11.621,23.7422 h 12.902 l 13.047,-37.8125 h -10.266 l -1.886,6.7969 h -14.629 l -1.985,-6.7969 H 500.66 l 13.055,37.8125" /><path
         id="path172"
         style="fill:#df9824;fill-opacity:1;fill-rule:nonzero;stroke:none"
         d="m 304.219,180.059 c 2.492,-2.981 4.211,-16.973 -7.942,-17.969 -20.89,-1.641 -30.933,0.449 -30.933,0.449 0,0 28.019,3.301 38.875,17.52" /><path
         id="path174"
         style="fill:#df9824;fill-opacity:1;fill-rule:nonzero;stroke:none"
         d="m 398.418,609.156 c 1.273,17.137 9.379,21.149 20.477,20.895 6.242,-0.149 15.668,-0.235 38.488,-0.063 -12.852,-1.14 -28.875,-7.898 -30.965,-24.617 -1.949,-15.527 -2.066,-69.336 -2.457,-92.273 -11.281,-0.438 -26.367,-0.024 -29.703,-0.879 1.66,23.816 2.91,79.812 4.16,96.937" /><path
         id="path176"
         style="fill:#df9824;fill-opacity:1;fill-rule:nonzero;stroke:none"
         d="m 283.91,697.07 v -21.41 h 5.598 v 21.41 h -5.598" /><path
         id="path178"
         style="fill:#df9824;fill-opacity:1;fill-rule:nonzero;stroke:none"
         d="m 289.508,701.5 -5.676,16.09 v -16.012 z" /></g></g></svg>